<?xml version="1.0" encoding="UTF-8"?>
<svg id="Layer_1" xmlns="http://www.w3.org/2000/svg" version="1.1" viewBox="0 0 384 384">
  <!-- Generator: Adobe Illustrator 29.3.0, SVG Export Plug-In . SVG Version: 2.1.0 Build 146)  -->
  <defs>
    <style>
      .st0, .st1 {
        fill: #fed974;
      }

      .st1 {
        opacity: .05;
      }
    </style>
  </defs>
  <path class="st0" d="M224.56,273.96c3.13,25.69,21.91,45.98,40.32,62.6,2.77,6.34-1.11,8.78-6.98,9.29-42.93-2.45-89.28,3.15-131.8,0-5.8-.43-10.28-1.98-8.01-8.82,6.9-7.05,15.02-12.92,21.52-20.39,10.22-11.74,18.86-26.88,19.83-42.68H28.82c-1.22,0-6.73-2.91-8.1-3.87-5.67-3.98-9.54-10.53-10.23-17.47-2.05-20.66.9-45.65.78-66.58,2.58-47.28-3.56-98.45-.06-145.28.99-13.22,8.33-23.16,22.08-24.33h318.19c12.31,1.39,20.37,10.64,21.33,22.84,1.65,20.88-.67,44.84-.81,65.86-2.58,47.03,3.56,97.96.06,144.53-.6,8.06-3.34,15.76-10.26,20.43-1.3.88-7.68,3.87-8.86,3.87h-128.37ZM34.25,27.89c-6.21.89-10.69,4.94-11.08,11.38l-.76,212.65c.54,6.73,6.54,11.08,13.1,10.85h312.2c6.65-.6,12.12-4.53,12.35-11.6l.76-212.65c-.45-7.22-7.25-10.81-13.85-10.85l-312.73.23ZM244.77,333.85c-16.01-16.6-28.85-36.42-32.89-59.56l-40.51.16c-2.07,23.62-15.75,43.28-32.15,59.4h105.54Z"/>
  <path class="st0" d="M80.63,357.21l219.94-.2c8.22-.01,8.22,11.31,0,11.3H82.68c-7.01.65-8.41-9.69-2.05-11.1Z"/>
  <path class="st1" d="M34.25,27.89l312.73-.23c6.6.04,13.4,3.63,13.85,10.85l-.76,212.65c-.23,7.07-5.7,11.01-12.35,11.6H35.52c-6.57.23-12.57-4.11-13.1-10.85l.76-212.65c.39-6.44,4.86-10.49,11.08-11.38ZM249.38,81.47c-.55-.33-4.11-9.62-5.23-11.61-22.9-40.67-81.21-41.52-105.54-1.98-1.44,2.33-5.61,13.2-6.24,13.6-1.41.9-4.5-.63-6.97,3.13-2.63,4.02-2.38,21.94-1.92,27.32s1.85,9.37,7.87,10.1c5.53.66,16.9,1.26,19.76-4.23,2.68-5.13,2.7-30.04-1.39-34.35-.73-2.31-6.54-1.03-5.99-2.97,1.64-5.78,11.22-16.81,16.1-20.58,26.45-20.48,66.9-10.55,77.41,21.64-3.19.68-4.61,2.27-5.59,5.27-1.78,5.48-2,27.36.97,32.01,1.49,2.32,4.28,3.29,6.91,3.2.35,4.61-3.46,10.15-8.03,11.06-4.01.8-11.39-1.26-11.47,5.06-.09,7.16,8.36,6.2,13.54,5.26,9.62-1.76,16.61-11.9,16.44-21.37,5.37.52,8.7-2.93,9.55-8.04.77-4.61.7-23.29-.77-27.32-2.54-6.95-7-3.75-9.42-5.18ZM191.25,63.3c-17.24.02-31.85,13.63-35.22,30.23-4.27,21.04,13.1,61.15,38.9,57.61,4.14-.57,7.67-2.96,6.28-7.63-1.58-5.31-8.57-2.28-12.16-2.83-12.58-1.92-23.55-27.85-23.47-39.25.28-37.72,55.72-35.67,51.29,4.28-.54,4.88-4.78,13.53-4.68,16.69.18,5.51,7.31,7.07,10.27,1.64,13.68-25.05-.53-60.76-31.21-60.73ZM203.06,139.02c5.61,5.63,18-1.31,10.54-7.17s-16.45,1.24-10.54,7.17ZM128.75,207.72c-.42,5.19.31,10.85,0,16.09h-56.51c-.76,0-3.14,2.23-3.55,3.18-2.26,5.16,1.45,8.7,6.51,8.83l234.35-.02c5.06-.3,8.45-6.45,4.64-10.29-.18-.18-2.98-1.7-3.16-1.7h-57.26v-19.84c0-4.85-5.22-16.87-7.92-21.27-7.54-12.28-15.38-16.15-27.5-22.65-3.54-1.9-10.35-8.69-13.9-3.16-4.3,6.7,7.4,10.42,7.39,11.9-3.31,3.16-6.37,6.61-9.71,9.74-2.44,2.29-6.79,3.5-6.78,7.48.01,4.5,7.35,6.76,10.09,10.9,2.95,4.45,1.1,12.73,9.45,10.1,7.08-2.23,12.98-22.6,12.31-29.61,5.53,5.12,10.41,10.38,13.12,17.57.7,1.85,2.98,9.04,2.98,10.5v18.34h-46.41c2.7-16.97-13.49-17.67-10.48,0h-47.16v-15.35c0-2.04,1.75-8.69,2.46-11.02,2.42-7.93,7.6-14.56,13.65-20.04,1.69-.33.95.72,1.22,1.75,2.38,9.26,1.92,19.32,10.06,26.63,8.77,7.88,9.25-4.77,11.97-8.87,2.4-3.63,7.66-5.22,9.21-8.02,3-5.41-4.94-8.74-8.15-11.86-2.94-2.86-5.47-5.97-8.22-9,4.1-2.17,11.19-6.43,6.41-11.66-3.94-4.31-7.8.64-11.15,2.43-21.34,11.42-35.78,22.44-37.93,48.9ZM189.92,196.27c-5.77,1.3-4.58,12.2,1.97,11.62,7.22-.64,6.38-13.5-1.97-11.62ZM55.93,225.52c-2.69-2.7-17.62-3.12-19.1,1.82-2.78,9.29,10.51,9.9,16.35,8.12,4.06-1.24,5.85-6.82,2.74-9.93ZM332.13,223.97c-6.28,1.41-6.32,10.85,2.09,11.82,4.89.56,13.87.69,14.46-5.8.64-7.11-12.01-7.03-16.54-6.02Z"/>
  <path class="st0" d="M128.75,207.72c2.15-26.46,16.58-37.48,37.93-48.9,3.35-1.79,7.21-6.74,11.15-2.43,4.78,5.23-2.31,9.49-6.41,11.66,2.75,3.02,5.28,6.14,8.22,9,3.21,3.12,11.16,6.45,8.15,11.86-1.56,2.81-6.81,4.39-9.21,8.02-2.71,4.1-3.19,16.74-11.97,8.87-8.14-7.31-7.68-17.36-10.06-26.63-.27-1.03.47-2.08-1.22-1.75-6.04,5.48-11.22,12.11-13.65,20.04-.71,2.33-2.46,8.98-2.46,11.02v15.35h47.16c-3.02-17.67,13.18-16.97,10.48,0h46.41v-18.34c0-1.46-2.28-8.64-2.98-10.5-2.71-7.19-7.58-12.46-13.12-17.57.67,7-5.23,27.38-12.31,29.61-8.35,2.63-6.5-5.64-9.45-10.1-2.74-4.15-10.08-6.4-10.09-10.9,0-3.98,4.34-5.19,6.78-7.48,3.34-3.13,6.4-6.58,9.71-9.74,0-1.48-11.69-5.2-7.39-11.9,3.55-5.53,10.37,1.26,13.9,3.16,12.11,6.5,19.96,10.37,27.5,22.65,2.7,4.4,7.92,16.43,7.92,21.27v19.84h57.26c.18,0,2.98,1.52,3.16,1.7,3.81,3.84.42,9.99-4.64,10.29l-234.35.02c-5.05-.14-8.76-3.67-6.51-8.83.41-.94,2.79-3.18,3.55-3.18h56.51c.31-5.24-.42-10.9,0-16.09ZM214.83,190.13l1.49-10.48-6.72,6.36c.87.67,4.23,5.01,5.22,4.11ZM173.56,184.98l-5.88-4.59c-.53,3.67,1.07,6.93,1.5,10.48,1.42-.94,5.42-4.09,4.38-5.89Z"/>
  <path class="st0" d="M249.38,81.47c2.41,1.43,6.88-1.77,9.42,5.18,1.47,4.03,1.54,22.71.77,27.32-.85,5.11-4.18,8.56-9.55,8.04.18,9.46-6.82,19.61-16.44,21.37-5.18.95-13.64,1.9-13.54-5.26.08-6.31,7.46-4.26,11.47-5.06,4.57-.91,8.39-6.45,8.03-11.06-2.63.09-5.42-.88-6.91-3.2-2.97-4.65-2.75-26.52-.97-32.01.98-3.01,2.4-4.59,5.59-5.27-10.51-32.19-50.96-42.11-77.41-21.64-4.88,3.78-14.46,14.8-16.1,20.58-.55,1.93,5.25.66,5.99,2.97,4.09,4.31,4.07,29.22,1.39,34.35-2.86,5.48-14.23,4.89-19.76,4.23-6.02-.72-7.41-4.71-7.87-10.1s-.71-23.31,1.92-27.32c2.47-3.77,5.56-2.23,6.97-3.13.63-.4,4.8-11.27,6.24-13.6,24.33-39.54,82.64-38.69,105.54,1.98,1.12,1.99,4.68,11.28,5.23,11.61ZM142.22,92.07h-8.23v19.46h8.23v-19.46ZM249.26,92.07h-8.23v19.46h8.23v-19.46Z"/>
  <path class="st0" d="M191.25,63.3c30.68-.03,44.89,35.68,31.21,60.73-2.96,5.43-10.1,3.87-10.27-1.64-.1-3.15,4.14-11.81,4.68-16.69,4.43-39.95-51.01-42.01-51.29-4.28-.08,11.4,10.89,37.33,23.47,39.25,3.6.55,10.59-2.48,12.16,2.83,1.39,4.67-2.15,7.06-6.28,7.63-25.8,3.54-43.17-36.57-38.9-57.61,3.37-16.6,17.98-30.21,35.22-30.23Z"/>
  <path class="st0" d="M55.93,225.52c3.1,3.11,1.31,8.69-2.74,9.93-5.84,1.79-19.14,1.17-16.35-8.12,1.48-4.94,16.4-4.52,19.1-1.82Z"/>
  <path class="st0" d="M332.13,223.97c4.54-1.02,17.19-1.1,16.54,6.02-.58,6.49-9.57,6.36-14.46,5.8-8.41-.97-8.37-10.41-2.09-11.82Z"/>
  <path class="st0" d="M203.06,139.02c-5.91-5.93,3.34-12.82,10.54-7.17s-4.93,12.8-10.54,7.17Z"/>
  <path class="st0" d="M189.92,196.27c8.35-1.88,9.18,10.98,1.97,11.62-6.55.58-7.74-10.32-1.97-11.62Z"/>
  <path class="st0" d="M214.83,190.13c-.99.89-4.35-3.44-5.22-4.11l6.72-6.36-1.49,10.48Z"/>
  <path class="st0" d="M173.56,184.98c1.04,1.8-2.96,4.95-4.38,5.89-.43-3.55-2.03-6.81-1.5-10.48l5.88,4.59Z"/>
  <rect class="st0" x="133.99" y="92.07" width="8.23" height="19.46"/>
  <rect class="st0" x="241.03" y="92.07" width="8.23" height="19.46"/>
</svg>