<?xml version="1.0" encoding="UTF-8"?>
<svg id="Layer_1" xmlns="http://www.w3.org/2000/svg" version="1.1" viewBox="0 0 512 512">
  <!-- Generator: Adobe Illustrator 29.3.0, SVG Export Plug-In . SVG Version: 2.1.0 Build 146)  -->
  <defs>
    <style>
      .st0 {
        fill: #fed974;
      }
    </style>
  </defs>
  <path class="st0" d="M506.28,412.99h-123.53v-14.93h107.24v-219.92h-62.45v-62.45h-141.18v82.81h188.69v131l-2.04,2.04h-186.66v52.94h-14.94c-.06-17.78-2.04-35.2,0-52.94h-24.44v-133.04h22.4l1.56-2.02c-1.06-3.67.47-7.05.55-10.81.46-21.14-1.65-44.13-1.49-65.29.05-6.58,3.49-13.16.06-19.61h169.01l67.2,67.2v245.03ZM477.77,163.21l-2.03-4.08-32.58-31.23c-1.4,5.69.77,11.17.74,17.02-.03,5.63-4.23,13.39.61,18.29h33.26ZM458.77,213.44h-195.48v101.81h195.48v-101.81Z"/>
  <path class="st0" d="M105.81,100.76v14.93H20.29v251.14h187.34V123.84h16.29v289.15H4V100.76h101.81ZM207.63,381.77H20.29v16.29h187.34v-16.29Z"/>
  <path class="st0" d="M145.18,92.62c.72-65.08,68.69-107.2,127.16-76.25,25.12,13.3,41.3,38.77,45.25,66.74l-14.99,2.16c-9.13-62.75-86.06-86.89-126.89-36.11-4.96,6.17-14.24,24.38-14.24,31.92v26.47c-2.08.63-10.6-1.8-9.47,2,1.36,4.58,11.46,21.01,14.63,26.1.53.85,2.02,3.76,2.97,3.12l16.28-29.22c1.13-3.79-7.39-1.37-9.47-2v-21.04c0-24.89,29.74-49.02,53.7-49.59,21.61-.52,49.4,17.67,54.27,39.4,2,8.91-7.41,8.32-14.24,9.46-9.45-46.87-76.8-41.3-77.43,6.84h20.36l-44.12,77.35-44.12-77.35h20.36Z"/>
  <path class="st0" d="M280.93,421.14l44.13-77.39,45.46,77.39h-21.72c.4,69.17-76.32,110.38-134.57,71.45-19.85-13.26-35.46-37.64-36.34-61.82l14.79-2.85c5.86,53.07,64.02,81.88,109.59,51.9,16.11-10.6,31.59-34.22,31.59-53.93v-19.68l9.49-.67c-1.99-2.39-16.9-32.13-18.98-30.55l-16.29,29.21c-1.47,3.66,7.7,1.48,9.49,2.01v23.76c0,11.83-14.29,30.83-23.98,37.11-33.48,21.72-76.18,3.35-84.63-35.06l14.87-4.04c7.52,40.7,66.11,44.15,76.83,4.09.76-2.85,2.5-9.16-.06-10.93h-19.68Z"/>
  <rect class="st0" x="43.37" y="288.1" width="141.18" height="16.29"/>
  <rect class="st0" x="43.37" y="194.43" width="141.18" height="14.93"/>
  <path class="st0" d="M161.47,319.32c-.7,5.24,1.94,12.35-2.04,16.29H43.37v-16.29h118.1Z"/>
  <path class="st0" d="M161.47,225.66l-.16,14.09-1.87,1.89c-.55.05-1.02-1.05-1.36-1.05H43.37v-14.93h118.1Z"/>
  <path class="st0" d="M184.55,256.88v16.29h-76.7c-3.98-3.94-1.33-11.05-2.04-16.29h78.74Z"/>
  <path class="st0" d="M105.81,138.77v16.29h-62.45c.7-5.24-1.94-12.35,2.04-16.29h60.41Z"/>
  <path class="st0" d="M90.88,256.88c-.68,3.69,1.91,14.75-2.23,16.1l-44.02-.4-1.27-15.7h47.51Z"/>
  <path class="st0" d="M340.66,229.73h30.54c4.87,0,14.13,10.46,15.69,15.53,2.12,6.86,2.32,32.84-.02,39.52-2.04,5.81-12.42,15.55-18.39,15.55h-25.79l-2.04-2.04v-68.55ZM356.95,284.03c12.67.71,15.46-.29,16.35-12.84.95-13.47,1.86-29.32-16.35-26.53v39.37Z"/>
  <path class="st0" d="M294.51,275.88v24.44c-5.24-.7-12.35,1.94-16.29-2.04v-68.55h29.19c3.98,0,13.3,8.14,15.41,11.74,11.08,18.92-8.1,39.27-28.31,34.41ZM294.5,260.96c20.4,3.37,20.39-19.27,0-16.3v16.3Z"/>
  <path class="st0" d="M404.46,246.7c2.99-16.82,24.47-18.66,38.02-16.98l1.35,14.93c-14-.18-27.51-2.56-24.43,16.3h24.44c-1.3,5.07-2.59,9.99,0,14.93h-22.4l-2.04,2.04v22.4h-14.93c2-15.95-2.69-38.52,0-53.62Z"/>
</svg>