<?xml version="1.0" encoding="UTF-8"?>
<svg id="Layer_1" xmlns="http://www.w3.org/2000/svg" version="1.1" viewBox="0 0 128 128">
  <!-- Generator: Adobe Illustrator 29.3.0, SVG Export Plug-In . SVG Version: 2.1.0 Build 146)  -->
  <defs>
    <style>
      .st0 {
        fill: #fed974;
      }
    </style>
  </defs>
  <path class="st0" d="M81.03,106.18l2.81,10.06c.51.32,7.45-.18,8.91.05.6.09,1.22.49,1.46,1.06.3.71.34,6.68.14,7.58s-1.15,1.51-2.08,1.45l-57.34-.2c-.58-.31-.95-.81-1.06-1.46-.2-1.26-.17-5.24-.02-6.55.12-1,.63-1.71,1.66-1.87,1.46-.23,8.4.27,8.91-.05l2.81-10.06H7.49c-2.62,0-5.99-3.77-5.93-6.44V22.04c.22-3.71,3.2-6.6,6.92-6.69h111.53c3.62.23,6.45,3.06,6.69,6.69v77.47c.2,2.72-3.33,6.68-5.94,6.68h-39.73ZM122.66,90.04V21.79c0-.96-2.03-2.67-3.14-2.41H8.99c-1.19-.36-3.4,1.34-3.4,2.41v68.24h117.06ZM122.66,94.07H5.6v5.68c0,.96,2.03,2.67,3.14,2.41h110.52c1.19.36,3.4-1.34,3.4-2.41v-5.68ZM48.74,116.27h30.78l-2.81-10.06h-25.16l-2.81,10.06ZM90.37,120.31h-52.47v2.02h52.47v-2.02Z"/>
  <path class="st0" d="M41.35,1.29l49.87-.04c7.01,1.45,6.83,10.92-.23,12.09l-49.43-.02c-1.6-.99-8.76-3.72-9.45-4.93-.55-.97-.36-2.03.49-2.74.47-.39,8.22-4.26,8.75-4.37ZM43.95,5.27c-1.65-.19-3.39.83-4.8,1.64-.26.15-.63-.01-.5.5.07.28,4.58,2.39,5.3,1.89v-4.04ZM47.98,9.31h43.01c1.76,0,1.76-4.04,0-4.04h-43.01v4.04Z"/>
  <path class="st0" d="M41.93,67.33c-13.88-3.6-16.61-22.42-4.02-29.63,12.52-7.17,27.25,4.3,23.57,18.27-.89,3.37-2.71,5.61-4.91,8.19l5.43,10.97c.47,1.36-.31,2.7-1.77,2.79-6.51-.46-13.79.59-20.2,0-5.23-.47,1.33-8.17,1.9-10.6ZM54.29,60.01c.74.54,2.67-3.22,2.89-3.79,4.24-10.8-7.45-20.83-17.45-14.92-9.63,5.69-6.81,20.53,4.17,22.21,1.01-1.61,3.75-8.83,4.98-9.53,3.03-1.73,4.31,4.15,5.4,6.02ZM50.25,60.52c-.59-.13-.4.08-.56.32-.18.28-1.31,2.59-1.2,2.7l2.51-.77-.75-2.26ZM56.81,73.89l-3.94-7.54c-2.15.87-4.35,1.39-6.66,1.6l-3.02,5.93h13.62Z"/>
  <path class="st0" d="M70.85,40.66l23.25,6.67c2.68.77,2.25,2.01,1.75,4.16-1.66,7.12-4.56,14.3-6.31,21.44-.73,2.38-2.17,1.82-4.02,1.39-7.11-1.66-14.3-4.58-21.44-6.31-1.04-.26-1.75-.93-1.89-2.03l7.39-24.63,1.28-.7ZM72.62,45.4l-5.6,19.16,19.07,5.43,5.43-19.08-18.9-5.52Z"/>
  <path class="st0" d="M11.08,27.52c1.26-.28,7.34-.23,8.78-.06,1.17.14,1.76.73,1.89,1.89.15,1.28.18,8.01-.12,8.97-.25.79-.99,1.16-1.77,1.25-1.28.15-8.02.18-8.97-.12-.79-.25-1.16-.99-1.25-1.77-.21-1.8-.21-6.54,0-8.34.1-.87.54-1.63,1.45-1.83ZM17.71,31.51h-4.04v4.04h4.04v-4.04Z"/>
  <path class="st0" d="M107.95,27.52c1.26-.28,7.34-.23,8.78-.06,1.17.14,1.76.73,1.89,1.89.15,1.28.18,8.01-.12,8.97-.25.79-.99,1.16-1.77,1.25-1.28.15-8.02.18-8.97-.12-.79-.25-1.16-.99-1.25-1.77-.21-1.8-.21-6.54,0-8.34.1-.87.54-1.63,1.45-1.83ZM114.58,31.51h-4.04v4.04h4.04v-4.04Z"/>
  <path class="st0" d="M11.08,41.65c1.26-.28,7.34-.23,8.78-.06,1.17.14,1.76.73,1.89,1.89.15,1.28.18,8.01-.12,8.97-.25.79-.99,1.16-1.77,1.25-1.28.15-8.02.18-8.97-.12-.79-.25-1.16-.99-1.25-1.77-.21-1.8-.21-6.54,0-8.34.1-.87.54-1.63,1.45-1.83ZM17.71,45.63h-4.04v4.04h4.04v-4.04Z"/>
  <path class="st0" d="M107.95,41.65c1.26-.28,7.34-.23,8.78-.06,1.17.14,1.76.73,1.89,1.89.15,1.28.18,8.01-.12,8.97-.25.79-.99,1.16-1.77,1.25-1.28.15-8.02.18-8.97-.12-.79-.25-1.16-.99-1.25-1.77-.21-1.8-.21-6.54,0-8.34.1-.87.54-1.63,1.45-1.83ZM114.58,45.63h-4.04v4.04h4.04v-4.04Z"/>
  <path class="st0" d="M11.08,55.78c1.26-.28,7.34-.23,8.78-.06,1.17.14,1.76.73,1.89,1.89.15,1.28.18,8.01-.12,8.97-.25.79-.99,1.16-1.77,1.25-1.28.15-8.02.18-8.97-.12-.79-.25-1.16-.99-1.25-1.77-.21-1.8-.21-6.54,0-8.34.1-.87.54-1.63,1.45-1.83ZM17.71,59.76h-4.04v4.04h4.04v-4.04Z"/>
  <path class="st0" d="M107.95,55.78c1.26-.28,7.34-.23,8.78-.06,1.17.14,1.76.73,1.89,1.89.15,1.28.18,8.01-.12,8.97-.25.79-.99,1.16-1.77,1.25-1.28.15-8.02.18-8.97-.12-.79-.25-1.16-.99-1.25-1.77-.21-1.8-.21-6.54,0-8.34.1-.87.54-1.63,1.45-1.83ZM114.58,59.76h-4.04v4.04h4.04v-4.04Z"/>
  <path class="st0" d="M11.08,69.91c1.26-.28,7.34-.23,8.78-.06,1.17.14,1.76.73,1.89,1.89.15,1.28.18,8.01-.12,8.97-.25.79-.99,1.16-1.77,1.25-1.28.15-8.02.18-8.97-.12-.79-.25-1.16-.99-1.25-1.77-.21-1.8-.21-6.54,0-8.34.1-.87.54-1.63,1.45-1.83ZM17.71,73.89h-4.04v4.04h4.04v-4.04Z"/>
  <path class="st0" d="M107.95,69.91c1.26-.28,7.34-.23,8.78-.06,1.17.14,1.76.73,1.89,1.89.15,1.28.18,8.01-.12,8.97-.25.79-.99,1.16-1.77,1.25-1.28.15-8.02.18-8.97-.12-.79-.25-1.16-.99-1.25-1.77-.21-1.8-.21-6.54,0-8.34.1-.87.54-1.63,1.45-1.83ZM114.58,73.89h-4.04v4.04h4.04v-4.04Z"/>
</svg>