<?xml version="1.0" encoding="UTF-8"?>
<svg id="Layer_1" xmlns="http://www.w3.org/2000/svg" version="1.1" viewBox="0 0 384 384">
  <!-- Generator: Adobe Illustrator 29.3.0, SVG Export Plug-In . SVG Version: 2.1.0 Build 146)  -->
  <defs>
    <style>
      .st0 {
        fill: #fed974;
      }
    </style>
  </defs>
  <path class="st0" d="M284.25,281.25v30.38l1.12,1.12h33.75c3.39,0,12.38,7.12,12.38,10.88v16.12h-174.75v-15.38c0-1.07,2.7-5.75,3.72-6.78,1.47-1.47,7.55-4.85,9.4-4.85h34.12v-31.5h-71.62c-6.91,0-16.88-10.75-16.88-17.62v-28.88h16.5v12.38l1.12,1.12h223.12v-124.12c0-.13-1.74-1.88-1.88-1.88h-193.88v-16.5h196.12c.32,0,5.11,1.98,5.87,2.38,5.97,3.18,9.55,9.38,10.25,16-2.51,44.67,3.36,93.04.04,137.28-.55,7.29-3.55,14-10.29,17.46-1,.51-5.94,2.39-6.61,2.39h-71.62Z"/>
  <path class="st0" d="M108.75,44.25v31.12c0,3.21,7.02,9.38,10.12,9.38h29.62v75h-40.12c-.29,0-4.58,1.84-5.28,2.22-4.41,2.47-8.03,7.31-8.6,12.4-.79,7.06-.94,29.87.18,36.57.91,5.44,5.1,8.37,8.82,11.8H13.88c-.21,0-1.82-1.81-2.24-2.26l-.02-173.99c.25-.52,2.68-2.24,3.01-2.24h94.12ZM37.28,69.91c-5.66,3.11-5.05,10.24,1.39,11.8,18.68-1.52,40.98,2.18,59.22.06,6.96-.81,7.85-9.66,1.47-12l-62.08.14ZM125.01,104.01c3.75-3.43,1.35-10.19-3.87-10.28l-82.55-.02c-7.52.94-6.54,11.57.76,12.05,25.85-1.81,54.83,2.35,80.3.02,1.75-.16,4.05-.58,5.35-1.78ZM125.04,128.04c3.48-3.49,1.43-10.26-3.9-10.31H38.61c-7.88.92-6.4,12.19,1.51,12.02,25.6-1.75,54.3,2.33,79.54.04,1.58-.14,4.27-.64,5.38-1.75ZM125.04,152.04c3.48-3.49,1.43-10.26-3.9-10.31H38.61c-7.88.92-6.4,12.19,1.51,12.02,25.6-1.75,54.3,2.33,79.54.04,1.58-.14,4.27-.64,5.38-1.75ZM82.26,176.01c3.29-3.01,1.79-8.96-2.41-10.24l-41.93.03c-6.09.95-6.52,10.76,1.52,11.88,7.52,1.05,30.48.95,38.2.09,1.38-.16,3.62-.84,4.62-1.76ZM82.26,200.01c3.29-3.01,1.79-8.96-2.41-10.24l-41.93.03c-6.09.95-6.52,10.76,1.52,11.88,7.52,1.05,30.48.95,38.2.09,1.38-.16,3.62-.84,4.62-1.76Z"/>
  <path class="st0" d="M170.25,212.25h-60.38c-1.51,0-3.27-4.1-3.42-5.58-.54-5.45-.85-25.99.06-30.78.21-1.09,2.93-4.14,3.36-4.14h60.38v-18.38c0-.46,1.85-1.84,2.67-1.91,1.53-.14,2.85,1.16,4.02,1.98,11.24,7.83,30.5,24.72,40.58,34.42,1,.97,2.89,2.4,3.03,3.8.12,2-1.73,3.21-3.03,4.47-10.08,9.72-28.91,26.12-40.15,34.1-1.8,1.28-3.26,3.02-5.59,1.91-.33-.16-1.51-1.4-1.51-1.51v-18.38Z"/>
  <polygon class="st0" points="148.5 72.75 120.75 72.75 120.75 45 148.5 72.75"/>
</svg>